<?xml version="1.0" encoding="UTF-8" standalone="no"?>
<svg
   xmlns:dc="http://purl.org/dc/elements/1.1/"
   xmlns:cc="http://creativecommons.org/ns#"
   xmlns:rdf="http://www.w3.org/1999/02/22-rdf-syntax-ns#"
   xmlns:svg="http://www.w3.org/2000/svg"
   xmlns="http://www.w3.org/2000/svg"
   viewBox="0 0 500 444"
   height="444"
   width="500"
   version="1.1"
   id="svg3371">
  <metadata
     id="metadata3377">
    <rdf:RDF>
      <cc:Work
         rdf:about="">
        <dc:format>image/svg+xml</dc:format>
        <dc:type
           rdf:resource="http://purl.org/dc/dcmitype/StillImage" />
        <dc:title></dc:title>
      </cc:Work>
    </rdf:RDF>
  </metadata>
  <defs
     id="defs3375" />
  <path
     id="path3381"
     d="m 207.1801,423.97331 c -24.67582,-4.97335 -41.34796,-11.0078 -54.5,-19.72618 -10.82621,-7.17661 -18.39293,-14.7107 -21.51965,-21.42687 -3.5846,-7.69967 -3.2746,-11.27278 1.49966,-17.2858 2.18347,-2.75 8.45187,-11.75 13.92977,-20 5.47791,-8.25 10.96045,-16.0125 12.18343,-17.25 3.28401,-3.32299 7.8821,-2.87441 17.4201,1.69948 4.52974,2.17221 9.52983,4.23693 11.11129,4.58827 1.58147,0.35133 5.5754,1.49092 8.8754,2.5324 3.3,1.04149 13.65,3.54683 23,5.56742 21.73369,4.6968 35.23169,5.09116 52,1.51927 21.79832,-4.64336 41.29028,-9.96765 50.06126,-13.6744 4.91631,-2.07771 10.82821,-3.97971 13.13757,-4.22667 5.61116,-0.60005 5.63214,-0.5762 23.95235,27.24423 2.53529,3.85 6.33568,8.8859 8.44533,11.19089 4.92974,5.38622 5.59809,8.19188 3.35942,14.10248 -3.56727,9.41842 -7.42042,13.89464 -19.95593,23.18285 -11.42124,8.46259 -24.62201,14.01425 -46.12388,19.39764 -15.67023,3.92334 -22.89667,4.49165 -56.37612,4.43357 -26.29323,-0.0456 -32.98765,-0.35448 -40.5,-1.86858 z M 93.795329,355.48692 c -8.81669,-3.82712 -27.60274,-20.69304 -37.26091,-33.45246 -5.18175,-6.84562 -15.90752,-28.8613 -19.24882,-39.51006 -3.76208,-11.9898 -9.38378,-33.1425 -10.7609,-40.48994 -1.63448,-8.72054 -1.59037,-32.9695 0.0737,-40.49598 3.06305,-13.85426 9.78997,-30.41026 14.32416,-35.25402 3.18083,-3.398 6.39926,-2.84687 11.12522,1.90508 8.06032,8.10467 29.25911,25.21689 40.11796,32.38428 17.396911,11.48286 16.219291,9.70788 26.977441,40.66172 5.14336,14.79867 15.50322,35.28101 22.40619,44.29892 8.41423,10.99221 9.45016,14.51807 8.58782,29.22936 -0.79619,13.58274 -2.77984,18.87654 -9.773,26.08132 -5.91442,6.09341 -9.33721,7.9603 -19.90042,10.85428 -5.106,1.39888 -10.49879,3.17153 -11.98398,3.93923 -3.47251,1.79494 -10.363851,1.72374 -14.684431,-0.15173 z m 297.235481,-0.38044 c -2.28211,-1.03623 -7.65612,-2.60929 -11.94223,-3.49567 -4.28612,-0.88639 -9.68694,-2.72157 -12.00181,-4.07818 -8.27636,-4.85027 -16.40801,-16.53017 -16.40539,-23.56389 7e-4,-1.88886 -0.51846,-7.15369 -1.15369,-11.69963 -1.51675,-10.85443 -0.63391,-13.60768 8.2106,-25.60566 7.00271,-9.4995 18.62763,-32.08977 22.44119,-43.60912 0.99782,-3.01407 2.80479,-7.73907 4.01548,-10.5 1.21069,-2.76093 2.52365,-6.81987 2.91769,-9.01987 1.57503,-8.79377 5.73153,-13.34916 21.56745,-23.63722 8.64161,-5.61416 27.7425,-20.84231 38.34665,-30.5718 4.51063,-4.13858 6.33872,-5.22449 8,-4.75212 8.18485,2.32729 18.20458,29.99986 19.35731,53.46114 0.48497,9.8705 0.18824,13.44395 -2.09414,25.21923 -6.09054,31.42245 -18.18113,63.6933 -29.51436,78.77641 -8.99306,11.96863 -28.08867,29.2597 -36.59546,33.13719 -5.11545,2.33168 -9.92276,2.31238 -15.14929,-0.0608 z m -15.02424,-152.5559 c -1.49383,-1.04633 -2.62697,-3.77392 -3.84276,-9.25 -2.95166,-13.29472 -13.98996,-39.58678 -29.71001,-70.76612 -4.0453,-8.02349 -9.20384,-31.625513 -10.8189,-49.500003 -0.5218,-5.775 -1.39749,-13.2 -1.94597,-16.5 -0.54849,-3.3 -0.99985,-9.283994 -1.00304,-13.297754 -0.005,-6.6109 0.24325,-7.52855 2.64023,-9.75 5.30762,-4.91893 21.20422,-2.44883 38.90054,6.04458 31.33079,15.037314 62.58012,53.655534 71.54271,88.413137 2.32368,9.0114 2.53533,23.62378 0.44418,30.66546 -0.92287,3.10764 -3.43858,7.26828 -6.78598,11.2231 -5.65583,6.68213 -18.48402,17.64628 -25.4531,21.75456 -3.86295,2.27721 -29.24103,12.44692 -31.06077,12.44692 -0.43372,0 -1.74193,-0.66775 -2.90713,-1.48388 z m -266.56769,-2.49074 c -12.097751,-4.49669 -21.682891,-9.42932 -28.799501,-14.82058 -8.63249,-6.53963 -19.76785,-18.61352 -22.21059,-24.08258 -3.74326,-8.38081 -3.36135,-24.99053 0.88806,-38.62222 3.03583,-9.73865 13.27905,-28.992433 20.57401,-38.672153 20.887821,-27.71618 38.225281,-41.272554 63.596141,-49.726614 12.37316,-4.12298 18.93938,-4.19325 23.35276,-0.24989 2.78971,2.4926 3.24713,3.62436 3.63564,8.99542 0.24443,3.37924 -0.25777,10.983634 -1.116,16.898654 -0.85823,5.91502 -1.84719,14.12958 -2.19768,18.25458 -0.35049,4.125 -2.20204,14.67006 -4.11454,23.433473 -2.87143,13.1574 -4.41292,17.86158 -8.84747,27 -17.73906,36.55541 -24.64713,53.17157 -26.56078,63.88735 -2.09188,11.71382 -4.57996,12.76709 -18.20005,7.70456 z m 63.46373,-96.58208 c -3.01435,-2.11134 -2.90174,-5.981973 0.71923,-24.720103 1.61795,-8.37276 3.24109,-17.78104 3.60698,-20.90728 0.80204,-6.8528 8.33186,-20.512524 14.10057,-25.579614 7.67352,-6.74023 20.49429,-10.91746 42.35071,-13.79861 30.24189,-3.98654 66.24336,3.68247 77.16048,16.43668 7.11471,8.31193 10.41061,17.067934 13.97471,37.125624 5.34822,30.098243 5.11156,33.831683 -2.05929,32.486423 -6.39677,-1.20005 -41.4608,-12.654853 -46.42179,-15.165203 -15.96388,-8.07798 -34.94217,-8.19816 -52.2925,-0.33114 -3.65937,1.65923 -13.90024,5.30307 -22.7575,8.09741 -8.85726,2.794353 -18.03234,5.717813 -20.38906,6.496573 -5.31003,1.75467 -5.28582,1.7551 -7.99254,-0.14076 z"
     style="opacity:1;fill:#ff0000;fill-opacity:1;stroke:#0000ff;stroke-width:4;stroke-miterlimit:4;stroke-dasharray:none;stroke-opacity:1" />
</svg>
